# xmcd
# 
# Track frame offsets:
#     150
#     22206
#     35243
#     50683
#     69480
#     84553
#     101786
#     111086
#     135015
#     156747
#     166859
#     180038
# 
# Disc length: 2593
# 
# Revision: 0
# Processed by: cddbd v1.5.2PL0 Copyright (c) Steve Scherf et al.
# Submitted via: fre:ac v1.0.31
# 
DISCID=9e0a1f0c
DTITLE=Ichi - Mono
DYEAR=0
DGENRE=Folk
TTITLE0=Oto No Ha Funbi
TTITLE1=Tomar Bonho
TTITLE2=Hibiwarezora
TTITLE3=Hinatabito
TTITLE4=Unagi No Koibuni
TTITLE5=Kaiten Himawari
TTITLE6=Shetani Shetani
TTITLE7=Taiyo Cerveja
TTITLE8=Tsuki No Niwa
TTITLE9=Kitakaze To Neppumoi
TTITLE10=Baobabunomimitabu
TTITLE11=Shirokuronekonolakkasai
EXTD=
EXTT0=
EXTT1=
EXTT2=
EXTT3=
EXTT4=
EXTT5=
EXTT6=
EXTT7=
EXTT8=
EXTT9=
EXTT10=
EXTT11=
PLAYORDER=
